<svg width="32" height="32" viewBox="0 0 32 32" fill="none" xmlns="http://www.w3.org/2000/svg">
<g clip-path="url(#clip0_1_58)">
<g clip-path="url(#clip1_1_58)">
<path d="M16.001 1.82438C12.0879 1.82438 8.54408 3.41161 5.97833 5.97932C3.41159 8.54117 1.82534 12.0869 1.82534 16.002C1.82534 19.9141 3.41159 23.4574 5.97833 26.0203C8.54408 28.5846 12.0879 30.1747 16.001 30.1747C19.9151 30.1747 23.4608 28.5846 26.0227 26.0203C28.5885 23.4574 30.1713 19.9141 30.1713 16.002C30.1713 12.0869 28.5885 8.54117 26.0227 5.97932C23.4608 3.41161 19.9151 1.82438 16.001 1.82438ZM16.001 0.106705C24.7774 0.106705 31.8934 7.2236 31.8934 16.002C31.8934 24.7774 24.7774 31.8934 16.001 31.8934C7.22554 31.8934 0.106689 24.7774 0.106689 16.002C0.106689 7.2236 7.22554 0.106705 16.001 0.106705Z" fill="#0076CE"/>
<path d="M8.48413 15.8725C8.48413 14.9462 7.86956 14.4201 6.99948 14.4201H6.46699V17.3258H6.98434C7.79334 17.3258 8.48413 16.8862 8.48413 15.8725ZM17.9562 16.9179L14.0333 20.0069L10.448 17.1842C9.93066 18.427 8.68051 19.2902 7.24082 19.2902H4.17236V12.4547H7.24082C8.84955 12.4547 10.0088 13.4777 10.447 14.5676L14.0333 11.7478L15.3616 12.7933L12.0748 15.3766L12.7065 15.871L15.9923 13.2891L17.3226 14.3316L14.0363 16.9179L14.667 17.4133L17.9562 14.8265V12.4547H20.3407V17.2951H22.7194V19.2985H17.9562V16.9179ZM25.74 17.296H28.1176V19.2985H23.353V12.4547H25.74V17.296Z" fill="#0076CE"/>
</g>
</g>
<defs>
<clipPath id="clip0_1_58">
<rect width="32" height="32" fill="white"/>
</clipPath>
<clipPath id="clip1_1_58">
<rect width="32" height="32" fill="white"/>
</clipPath>
</defs>
</svg>
