<svg width="182" height="23" viewBox="0 0 182 23" fill="none" xmlns="http://www.w3.org/2000/svg">
<g clip-path="url(#clip0_19_15)">
<path d="M71.0306 2.14251V1.41501L70.7146 1.20751H58.1262L57.9164 1.41501V2.14251L58.1262 2.35001H63.4851L63.6949 2.55751V17.7075L63.9047 17.915H64.8501L65.0599 17.7075V2.65751L65.2697 2.45001H70.7297L71.0457 2.14001L71.0306 2.14251ZM73.8617 5.76751C70.4997 5.76751 68.5028 8.15251 68.5028 11.5675V12.09C68.5028 15.415 70.1837 18.315 74.0639 18.315C77.4258 18.315 78.6897 16.135 78.8919 14.69L78.6847 14.485H77.7367L77.5295 14.69C77.0037 16.1425 76.0558 17.0775 74.1675 17.0775C71.0078 17.0775 70.0725 14.1775 70.0725 12.7275L70.2849 12.5225H79.0057L79.218 12.3125V11.585C79.218 8.16001 77.3298 5.78501 73.8591 5.78501L73.8617 5.76751ZM73.8617 7.01251C75.3303 7.01251 76.2984 7.61001 76.895 8.41501C77.4991 9.22001 77.7342 10.23 77.7342 11.065L77.5269 11.275H70.1711L69.9588 11.065C69.9588 10.235 70.1946 9.22251 70.798 8.41501C71.4021 7.61001 72.3753 7.01251 73.8566 7.01251H73.8617ZM81.6219 11.9875C81.6219 8.66251 83.3004 6.91251 85.7169 6.91251C88.131 6.91251 89.0789 8.36501 89.3822 9.81251L89.592 10.02H90.6411L90.8509 9.81251C90.6411 7.42501 88.6466 5.76251 85.7195 5.76251C82.5597 5.76251 80.1584 7.73501 80.1584 11.9875C80.1584 16.3375 82.5724 18.2125 85.7195 18.2125C88.6517 18.2125 90.5475 16.5525 90.8509 14.1625L90.6411 13.955H89.6957L89.4859 14.1625C89.2761 15.615 88.227 17.0625 85.8206 17.0625C83.4066 17.0625 81.6219 15.4025 81.6219 11.9875ZM102.602 17.8125V10.5375C102.602 7.41251 100.924 5.76251 98.2042 5.76251C96.5257 5.76251 95.0444 6.49001 94.3114 7.73501H94.1016V1.51001L93.7856 1.20001H92.8402L92.6304 1.40751V17.8075L92.8402 18.015H93.7856L93.9954 17.8075V11.2575C93.9954 8.55751 95.2542 6.90751 97.8882 6.90751C99.8826 6.90751 101.048 8.15251 101.048 10.5325V17.8075L101.258 18.015H102.203L102.623 17.8075L102.602 17.8125ZM114.989 17.8125V10.5375C114.989 7.41251 113.31 5.76251 110.59 5.76251C108.912 5.76251 107.431 6.49001 106.697 7.73501H106.488L106.278 6.28251L106.068 6.07501H105.332L105.123 6.28251V17.8075L105.332 18.015H106.278L106.488 17.8075V11.2575C106.488 8.55751 107.747 6.90751 110.38 6.90751C112.375 6.90751 113.54 8.15251 113.54 10.5325V17.8075L113.75 18.015H114.799L115.009 17.8075L114.989 17.8125ZM122.016 5.86251C118.856 5.86251 116.455 8.04501 116.455 12.0875C116.455 16.1375 118.871 18.3125 122.016 18.3125C125.16 18.3125 127.577 16.135 127.577 12.0875C127.577 8.03751 125.16 5.86251 122.016 5.86251ZM122.016 7.00501C123.224 7.00501 124.245 7.50001 124.973 8.38251C125.694 9.26501 126.113 10.5375 126.113 12.0825C126.113 13.64 125.694 14.9075 124.973 15.7825C124.253 16.665 123.229 17.155 122.016 17.155C120.808 17.155 119.786 16.665 119.058 15.7825C118.338 14.9 117.918 13.6275 117.918 12.0825C117.918 10.4725 118.338 9.20751 119.058 8.33251C119.779 7.46251 120.803 6.99501 122.016 6.99501V7.00501ZM130.838 17.805V1.40501L130.522 1.19751H129.576L129.367 1.40501V17.805L129.576 18.0125H130.522L130.838 17.805ZM138.093 5.85501C134.933 5.85501 132.531 8.03751 132.531 12.08C132.531 16.13 134.948 18.305 138.093 18.305C141.237 18.305 143.654 16.1275 143.654 12.08C143.654 8.03001 141.242 5.85501 138.093 5.85501ZM138.093 6.99751C139.301 6.99751 140.319 7.49251 141.05 8.37501C141.77 9.25751 142.195 10.53 142.195 12.075C142.195 13.6325 141.77 14.9 141.05 15.775C140.33 16.6575 139.308 17.1475 138.093 17.1475C136.884 17.1475 135.863 16.6575 135.135 15.775C134.41 14.8925 133.985 13.62 133.985 12.075C133.985 10.465 134.41 9.20001 135.13 8.32501C135.85 7.45501 136.874 6.98751 138.087 6.98751L138.093 6.99751ZM150.049 5.75251C146.687 5.75251 144.892 8.45251 144.892 11.9775C144.892 15.6025 146.573 18.2025 150.049 18.2025C152.253 18.2025 153.411 17.2675 153.942 16.23V16.3325C153.942 19.4575 153.209 21.8325 150.276 21.8325C148.072 21.8325 147.344 20.9 147.117 19.655L146.904 19.445H145.961L145.749 19.655C145.959 21.6275 147.433 22.98 150.375 22.98C153.535 22.98 155.532 21.0075 155.532 16.23V6.25501L155.319 6.05001H154.584L154.376 6.25501L154.164 7.71001H153.957C153.431 6.77501 152.276 5.73751 150.064 5.73751L150.049 5.75251ZM150.049 6.89501C151.257 6.89501 152.228 7.30751 152.905 8.15001C153.575 8.99251 153.942 10.265 153.942 11.975C153.942 13.6875 153.575 14.95 152.905 15.8C152.235 16.6425 151.265 17.06 150.049 17.06C148.841 17.06 147.87 16.6425 147.193 15.8C146.523 14.9575 146.161 13.685 146.161 11.975C146.161 10.315 146.525 9.05001 147.193 8.17501C147.862 7.31751 148.833 6.88001 150.049 6.88001V6.89501ZM159.275 3.89501V2.44251L159.065 2.23501H158.12L157.804 2.44251V3.89501L158.014 4.10251H158.959L159.275 3.89501ZM159.275 17.795V6.27001L159.065 6.06251H158.12L157.804 6.27001V17.795L158.014 18.0025H158.959L159.275 17.795ZM166.302 5.74501C162.941 5.74501 160.944 8.13001 160.944 11.545V12.0675C160.944 15.3925 162.625 18.2925 166.505 18.2925C169.867 18.2925 171.131 16.1125 171.333 14.6675L171.12 14.4625H170.178L169.965 14.6675C169.439 16.12 168.497 17.055 166.603 17.055C163.444 17.055 162.508 14.155 162.508 12.705L162.721 12.5H171.441L171.654 12.29V11.5625C171.654 8.23751 169.657 5.76251 166.295 5.76251L166.302 5.74501ZM166.302 6.99001C167.771 6.99001 168.744 7.58751 169.361 8.39251C169.965 9.19751 170.2 10.2075 170.2 11.0425L169.988 11.2525H162.632L162.425 11.0425C162.425 10.2125 162.661 9.20001 163.264 8.39251C163.868 7.58751 164.836 6.99001 166.297 6.99001H166.302ZM181.949 14.89C181.949 12.71 180.691 11.765 178.284 11.265C175.87 10.745 174.391 10.5375 174.391 8.87751C174.391 7.63251 175.337 6.90501 177.121 6.90501C179.326 6.90501 180.054 7.84001 180.054 9.08501L180.263 9.29251H181.209L181.419 9.08501C181.419 6.69751 179.424 5.76001 177.021 5.76001C174.291 5.76001 172.926 7.21251 172.926 8.88501C172.926 10.8575 174.394 11.785 176.818 12.21C179.232 12.73 180.484 12.9375 180.484 14.91C180.484 16.155 179.748 17.09 177.324 17.09C175.12 17.09 174.164 15.845 174.164 14.39L173.954 14.1825H173.009L172.799 14.39C172.799 16.57 174.477 18.24 177.424 18.24C180.458 18.345 181.949 16.89 181.949 14.915L181.949 14.89Z" fill="#7C7C7C"/>
<path d="M57.8861 14.475V17.9H46.9661V0.95H50.9347V14.45H57.8861V14.475ZM24.7722 0L15.0909 7.375C14.0974 3.7 10.8695 1 6.90085 1H-0.0505371V17.95H6.90085C10.8695 17.95 14.3578 15.25 15.0909 11.575L24.7722 18.95L34.4536 11.575V17.95H45.3736V14.5H38.1695V1H34.2009V7.375L25.025 14.75L23.0407 13.03L27.5149 9.58L32.2418 5.905L29.5118 3.6975L20.336 10.8225L18.3517 9.1025L27.5275 2.2275L24.7975 0.02H24.7927L24.7722 0ZM3.6653 4.425H6.64807C7.26738 4.425 7.87657 4.5625 8.43521 4.815C8.99385 5.0675 9.50699 5.4375 9.94177 5.9C10.3765 6.36 10.7304 6.91 10.9782 7.53C11.2264 8.1525 11.3624 8.845 11.3624 9.58C11.3624 10.255 11.2408 10.9125 11.011 11.5225C10.782 12.1325 10.4473 12.6925 10.0277 13.1675C9.6081 13.6425 9.1076 14.0325 8.53632 14.305C7.96505 14.5775 7.32805 14.73 6.64555 14.73H3.66277V4.43L3.6653 4.425Z" fill="#0076CE"/>
</g>
<defs>
<clipPath id="clip0_19_15">
<rect width="182" height="23" fill="white"/>
</clipPath>
</defs>
</svg>
