<svg width="50" height="50" viewBox="0 0 50 50" fill="none" xmlns="http://www.w3.org/2000/svg">
<g clip-path="url(#clip0_19_9)">
<path d="M25.0015 2.85057C18.8873 2.85057 13.3501 5.33062 9.34112 9.34267C5.3306 13.3456 2.85207 18.8858 2.85207 25.0031C2.85207 31.1158 5.3306 36.6522 9.34112 40.6567C13.3501 44.6634 18.8873 47.148 25.0015 47.148C31.1173 47.148 36.6576 44.6634 40.6604 40.6567C44.6694 36.6522 47.1426 31.1158 47.1426 25.0031C47.1426 18.8858 44.6694 13.3456 40.6604 9.34267C36.6576 5.33062 31.1173 2.85057 25.0015 2.85057ZM25.0015 0.166707C38.7147 0.166707 49.8333 11.2869 49.8333 25.0031C49.8333 38.7147 38.7147 49.8334 25.0015 49.8334C11.2899 49.8334 0.166687 38.7147 0.166687 25.0031C0.166687 11.2869 11.2899 0.166707 25.0015 0.166707Z" fill="#0076CE"/>
<path d="M13.2565 24.8007C13.2565 23.3534 12.2962 22.5313 10.9367 22.5313H10.1047V27.0716H10.9131C12.1771 27.0716 13.2565 26.3846 13.2565 24.8007ZM28.0566 26.4342L21.9271 31.2607L16.3251 26.8502C15.5167 28.7921 13.5633 30.1409 11.3138 30.1409H6.51935V19.4605H11.3138C13.8274 19.4605 15.6388 21.0589 16.3235 22.7619L21.9271 18.3559L24.0026 19.9894L18.8669 24.0259L19.8539 24.7984L24.9881 20.7642L27.0666 22.3932L21.9317 26.4342L22.9171 27.2082L28.0566 23.1664V19.4605H31.7824V27.0235H35.4991V30.1539H28.0566V26.4342ZM40.2187 27.025H43.9338V30.1539H36.4891V19.4605H40.2187V27.025Z" fill="#0076CE"/>
</g>
<defs>
<clipPath id="clip0_19_9">
<rect width="50" height="50" fill="white"/>
</clipPath>
</defs>
</svg>
